<svg width="21" height="12" viewBox="0 0 21 12" fill="none" xmlns="http://www.w3.org/2000/svg">
<path fill-rule="evenodd" clip-rule="evenodd" d="M18.6817 2.42241H2.73025C2.44333 2.42241 2.21074 2.655 2.21074 2.94192V9.41812C2.21074 9.70504 2.44333 9.93763 2.73025 9.93763H18.6817C18.9686 9.93763 19.2012 9.70504 19.2012 9.41812V2.94192C19.2012 2.655 18.9686 2.42241 18.6817 2.42241ZM2.73025 0.621826C1.4489 0.621826 0.410156 1.66057 0.410156 2.94192V9.41812C0.410156 10.6995 1.4489 11.7382 2.73025 11.7382H18.6817C19.963 11.7382 21.0017 10.6995 21.0017 9.41812V2.94192C21.0017 1.66057 19.963 0.621826 18.6817 0.621826H2.73025Z" fill="#0688FF"/>
</svg>
